<svg xmlns="http://www.w3.org/2000/svg" width="176" height="56" viewBox="0 0 176 56" fill="none"><path d="M121.477 50.7654C121.073 50.1164 120.424 50.0185 119.799 50.0185C119.151 50.0185 118.122 50.2511 118.122 51.145C118.122 51.8551 118.881 52.0143 119.812 52.1857C120.877 52.3939 121.979 52.5776 121.979 53.7775C121.979 55.0264 120.718 55.3326 119.787 55.3326C118.93 55.3326 117.951 54.9775 117.522 54.1326L117.902 53.9367C118.244 54.6101 119.114 54.9407 119.787 54.9407C120.461 54.9407 121.55 54.7448 121.55 53.7653C121.55 52.9326 120.644 52.749 119.738 52.5776C118.722 52.3816 117.693 52.1735 117.693 51.1572C117.669 49.9817 118.881 49.6266 119.799 49.6266C120.595 49.6266 121.281 49.7491 121.82 50.5695L121.477 50.7776V50.7654Z" fill="#0788C5"></path><path d="M129.803 52.4674C129.803 53.9244 128.873 55.3203 127.011 55.3203C125.15 55.3203 124.22 53.9122 124.22 52.4551C124.22 50.998 125.138 49.6144 127.011 49.6144C128.885 49.6144 129.815 50.9858 129.803 52.4796V52.4674ZM124.648 52.4674C124.648 53.7163 125.444 54.9285 127.024 54.9285C128.603 54.9285 129.399 53.7163 129.399 52.4674C129.399 51.2184 128.603 50.0062 127.024 50.0062C125.444 50.0062 124.648 51.1572 124.648 52.4674Z" fill="#0788C5"></path><path d="M132.815 49.7001V54.8305H135.925V55.2346H132.387V49.7001H132.815Z" fill="#0788C5"></path><path d="M142.219 49.7001V53.1408C142.219 56.0305 137.982 56.0427 137.982 53.1408V49.7001H138.399V53.1408C138.399 55.5162 141.803 55.5162 141.803 53.1408V49.7001H142.219Z" fill="#0788C5"></path><path d="M146.529 50.0797H144.533V49.7001H148.953V50.0797H146.958V55.2224H146.529V50.0797Z" fill="#0788C5"></path><path d="M151.341 55.2346V49.7001H151.757V55.2346H151.341Z" fill="#0788C5"></path><path d="M160.071 52.4674C160.071 53.9244 159.141 55.3203 157.28 55.3203C155.419 55.3203 154.488 53.9122 154.488 52.4551C154.488 50.998 155.406 49.6144 157.28 49.6144C159.153 49.6144 160.084 50.9858 160.071 52.4796V52.4674ZM154.904 52.4674C154.904 53.7163 155.7 54.9285 157.28 54.9285C158.859 54.9285 159.655 53.7163 159.655 52.4674C159.655 51.2184 158.859 50.0062 157.28 50.0062C155.7 50.0062 154.904 51.1572 154.904 52.4674Z" fill="#0788C5"></path><path d="M162.851 49.7001L166.573 54.2795V49.7001H166.989V55.2346H166.818L163.084 50.6674V55.2346H162.655V49.7001H162.839H162.851Z" fill="#0788C5"></path><path d="M173.467 50.7654C173.063 50.1164 172.414 50.0185 171.789 50.0185C171.14 50.0185 170.112 50.2511 170.112 51.145C170.112 51.8551 170.871 52.0143 171.802 52.1857C172.867 52.3939 173.969 52.5776 173.969 53.7775C173.969 55.0264 172.708 55.3326 171.777 55.3326C170.92 55.3326 169.94 54.9775 169.512 54.1326L169.891 53.9367C170.234 54.6101 171.104 54.9407 171.777 54.9407C172.45 54.9407 173.54 54.7448 173.54 53.7653C173.54 52.9326 172.634 52.749 171.728 52.5776C170.712 52.3816 169.683 52.1735 169.683 51.1572C169.659 49.9817 170.871 49.6266 171.789 49.6266C172.585 49.6266 173.271 49.7491 173.81 50.5695L173.467 50.7776V50.7654Z" fill="#0788C5"></path><path d="M10.42 5.20388C10.42 8.08132 8.09357 10.4078 5.21613 10.4078C2.33869 10.4078 0 8.08132 0 5.20388C0 2.32644 2.32644 0 5.20388 0C8.08132 0 10.4078 2.32644 10.4078 5.20388" fill="#0788C5"></path><path d="M19.3095 40.5046C19.2482 40.3821 19.1993 40.2597 19.1748 40.125L14.3137 30.5499C15.0239 30.1703 15.6729 29.7172 16.2606 29.1785C16.8483 28.6397 17.3504 28.0275 17.7789 27.3541C18.2075 26.6806 18.5381 25.9582 18.7707 25.1745C19.0034 24.3909 19.1258 23.5705 19.1258 22.7134C19.1258 21.4767 18.8932 20.3135 18.4279 19.2238C17.9626 18.134 17.3136 17.1789 16.5055 16.3708C15.6851 15.5627 14.73 14.926 13.6403 14.4484C12.5383 13.9709 11.3628 13.7383 10.1017 13.7383H0.550999V18.4034H6.95483C7.40788 18.4034 7.83643 18.4034 8.25274 18.4034C8.66905 18.4034 9.09761 18.4156 9.53841 18.4279C10.1261 18.4646 10.6649 18.6115 11.1669 18.8564C11.6689 19.1013 12.0975 19.4319 12.4526 19.8237C12.8199 20.2278 13.0893 20.6686 13.2974 21.1706C13.4934 21.6726 13.5913 22.1991 13.5913 22.7257C13.5913 23.2889 13.4934 23.8154 13.2974 24.3174C13.1015 24.8195 12.8322 25.2725 12.4893 25.6521C12.1465 26.0439 11.7179 26.3623 11.2281 26.5949C10.7384 26.8275 10.1996 26.9745 9.61187 26.999C9.36699 27.0235 9.13434 27.0357 8.91394 27.0357H0.550999V31.7988H7.39563C7.7997 31.7988 8.11806 31.7988 8.3507 31.7988C8.58334 31.7988 8.7915 31.7988 8.99965 31.7988L13.5178 40.7495C13.6648 41.2147 13.9709 41.4351 14.4117 41.4351H18.7462C19.187 41.4351 19.3952 41.2515 19.3952 40.8719C19.3952 40.7372 19.3584 40.6025 19.2972 40.4801" fill="#0788C5"></path><path d="M42.8188 38.8516C41.7168 39.7821 40.5168 40.5168 39.2189 41.0556C37.921 41.5943 36.4884 41.8515 34.9333 41.8515C33.2559 41.8515 31.6518 41.5331 30.1458 40.8964C28.6397 40.2597 27.3173 39.3903 26.1786 38.2883C25.0398 37.1863 24.146 35.8884 23.4726 34.3946C22.8114 32.913 22.4685 31.309 22.4685 29.5825C22.4685 28.4805 22.6032 27.403 22.8848 26.3745C23.1542 25.346 23.546 24.3787 24.0481 23.4726C24.5501 22.5665 25.1623 21.7461 25.8847 20.987C26.6071 20.24 27.4153 19.5911 28.3091 19.0523C29.203 18.5136 30.1703 18.0973 31.211 17.8156C32.2518 17.5218 33.3538 17.3748 34.5048 17.3748C35.4476 17.3748 36.3904 17.485 37.3088 17.7177C38.2271 17.9503 39.1087 18.2809 39.9291 18.6972C40.7617 19.1258 41.5331 19.6278 42.2555 20.24C42.9779 20.84 43.6146 21.5257 44.1656 22.2849C44.9126 23.3256 45.4636 24.4521 45.8064 25.6643C46.1492 26.8765 46.3329 28.2112 46.3329 29.6805C46.3329 30.0356 46.3207 30.3417 46.2839 30.5866C46.2472 30.8315 46.1737 31.0274 46.0513 31.1743C45.9288 31.3212 45.7452 31.4314 45.488 31.5049C45.2309 31.5784 44.8881 31.6029 44.4473 31.6029H27.8683C28.0275 32.4967 28.3336 33.2926 28.7866 33.9783C29.2397 34.664 29.7784 35.2517 30.4029 35.7292C31.0274 36.2068 31.7008 36.5741 32.4355 36.819C33.1701 37.0639 33.9048 37.1863 34.6395 37.1863C35.2027 37.1863 35.7415 37.1251 36.2557 37.0149C36.77 36.9047 37.2598 36.7578 37.7006 36.5741C38.1536 36.3904 38.5577 36.17 38.9373 35.9252C39.3169 35.6803 39.6475 35.4354 39.9413 35.166C39.9413 35.1538 39.9413 35.1538 39.9658 35.1538C40.1127 35.0191 40.2597 34.9089 40.3944 34.8232C40.5291 34.7374 40.676 34.7007 40.8229 34.7007C40.9331 34.7007 41.0678 34.7374 41.2025 34.8109C41.3494 34.8844 41.4841 35.0068 41.6188 35.1905C41.9617 35.5946 42.2433 35.9374 42.4759 36.219C42.7086 36.4884 42.9045 36.721 43.0514 36.9047C43.1983 37.0884 43.3085 37.2476 43.382 37.3945C43.4555 37.5292 43.48 37.6639 43.48 37.8108C43.48 38.1536 43.2473 38.5087 42.7698 38.8516M34.517 22.0155C33.7824 22.0155 33.0722 22.1502 32.3743 22.4196C31.6763 22.6889 31.0396 23.044 30.4519 23.5093C29.8764 23.9746 29.3621 24.5133 28.9336 25.1378C28.505 25.7623 28.1867 26.4357 27.9908 27.1581H41.227C41.0311 26.399 40.725 25.7011 40.3209 25.0766C39.9168 24.4521 39.4271 23.9134 38.8516 23.4481C38.2761 22.995 37.6271 22.64 36.8925 22.3951C36.1578 22.1502 35.3619 22.0277 34.517 22.0277" fill="#0788C5"></path><path d="M57.8182 40.9209C57.6957 40.676 57.5733 40.4189 57.4509 40.1617C57.3284 39.9046 57.2182 39.6475 57.1203 39.4026C55.4795 35.2517 53.8388 31.1131 52.198 26.999C50.5572 22.8848 48.9165 18.7585 47.2512 14.6198C47.2512 14.5709 47.2512 14.5219 47.2268 14.4729C47.2145 14.4239 47.2023 14.375 47.2023 14.326C47.2023 13.9464 47.4349 13.7627 47.9124 13.7627H51.9654C52.4062 13.7627 52.7123 14.0076 52.8959 14.5096L60.1324 33.7456L67.1362 14.3137C67.2586 13.9342 67.528 13.7505 67.9198 13.7505H72.1564C72.4503 13.7505 72.6584 13.8117 72.7686 13.9219C72.8788 14.0321 72.9401 14.1791 72.9401 14.3505V14.6076L69.132 24.5133L72.6707 33.7089L80.0663 14.4484C80.2377 13.9709 80.5806 13.7383 81.0704 13.7383H84.9763C85.2702 13.7383 85.4906 13.7995 85.6008 13.9097C85.7232 14.0199 85.7845 14.1668 85.7845 14.3382C85.7845 14.4117 85.7845 14.4607 85.76 14.4852V14.5586C84.009 18.9421 82.2213 23.3011 80.4214 27.6357C78.6092 31.9702 76.8338 36.3292 75.0706 40.7127C75.0706 40.7495 75.0339 40.8107 74.9849 40.8964C74.9359 40.9821 74.8747 41.0678 74.8012 41.1535C74.7155 41.2392 74.6298 41.3005 74.5073 41.3739C74.3971 41.4351 74.2625 41.4719 74.1155 41.4719H71.1769C70.883 41.4719 70.6748 41.4107 70.5279 41.276C70.381 41.1413 70.283 40.9943 70.2463 40.8352C69.5973 39.2189 68.9484 37.6149 68.3117 36.0231C67.675 34.4313 67.0138 32.8273 66.3526 31.211L62.7282 40.2474C62.6792 40.3821 62.618 40.5291 62.5568 40.676C62.4833 40.8229 62.4098 40.9576 62.3119 41.0801C62.2139 41.2025 62.116 41.3005 61.9935 41.3739C61.8711 41.4474 61.7364 41.4841 61.5895 41.4841H58.6508C58.4304 41.4841 58.2467 41.4229 58.0998 41.3127C57.9529 41.2025 57.8549 41.0801 57.7937 40.9454" fill="#A8AAAD"></path><path d="M86.5436 29.6438C86.5436 28.5173 86.6905 27.4153 86.9844 26.3623C87.2783 25.3092 87.6946 24.3297 88.2211 23.4236C88.7599 22.5175 89.3966 21.6971 90.1435 20.9502C90.8904 20.2156 91.723 19.5788 92.6291 19.0401C93.5352 18.5136 94.5147 18.0973 95.5555 17.8156C96.5963 17.534 97.686 17.3748 98.8125 17.3748C99.939 17.3748 101.017 17.5218 102.057 17.8156C103.098 18.1095 104.078 18.5136 104.984 19.0401C105.89 19.5666 106.71 20.2033 107.457 20.9502C108.204 21.6849 108.841 22.5175 109.379 23.4236C109.918 24.3297 110.322 25.3092 110.616 26.3623C110.91 27.4153 111.057 28.505 111.057 29.6438C111.057 30.7825 110.91 31.86 110.616 32.913C110.322 33.9538 109.906 34.9334 109.379 35.8394C108.841 36.7455 108.204 37.5659 107.457 38.3128C106.71 39.0597 105.89 39.6964 104.984 40.2229C104.078 40.7495 103.11 41.1658 102.057 41.4596C101.017 41.7535 99.9268 41.9004 98.8125 41.9004C97.6983 41.9004 96.5963 41.7535 95.5555 41.4596C94.5147 41.1658 93.5352 40.7617 92.6291 40.2229C91.723 39.6964 90.8904 39.0597 90.1435 38.3128C89.3966 37.5659 88.7599 36.7455 88.2211 35.8394C87.6823 34.9334 87.266 33.966 86.9844 32.913C86.6905 31.8722 86.5436 30.7825 86.5436 29.6438ZM91.821 29.6438C91.821 30.6356 91.9924 31.5784 92.3475 32.4722C92.6903 33.3661 93.1801 34.1375 93.8046 34.7987C94.429 35.4599 95.1637 35.9864 96.0208 36.366C96.8779 36.7578 97.8085 36.9414 98.8125 36.9414C99.8166 36.9414 100.71 36.7455 101.555 36.366C102.4 35.9864 103.123 35.4599 103.735 34.7987C104.347 34.1375 104.825 33.3661 105.167 32.4722C105.51 31.5784 105.682 30.6356 105.682 29.6438C105.682 28.652 105.51 27.7214 105.167 26.8275C104.825 25.9337 104.347 25.1378 103.735 24.4644C103.123 23.7909 102.4 23.2522 101.555 22.8481C100.71 22.444 99.8043 22.2359 98.8125 22.2359C97.8207 22.2359 96.8779 22.444 96.0208 22.8481C95.1637 23.2522 94.429 23.7909 93.8046 24.4644C93.1801 25.1378 92.6903 25.9337 92.3475 26.8275C91.9924 27.7214 91.821 28.6642 91.821 29.6438Z" fill="#A8AAAD"></path><path d="M113.616 18.8687C113.616 18.5136 113.738 18.232 113.983 18.0483C114.228 17.8646 114.498 17.7667 114.779 17.7667H117.155C117.473 17.7667 117.706 17.8646 117.865 18.0483C118.024 18.232 118.159 18.4646 118.244 18.734C118.33 19.0034 118.391 19.3095 118.428 19.6156C118.465 19.9339 118.514 20.2278 118.563 20.4849C118.844 20.1054 119.151 19.7258 119.493 19.3584C119.836 18.9911 120.228 18.6605 120.657 18.3789C121.097 18.0973 121.587 17.8646 122.138 17.6932C122.689 17.5218 123.314 17.4361 124.012 17.4361C124.636 17.4361 125.199 17.4728 125.689 17.5585C126.191 17.6442 126.669 17.7667 127.122 17.9381C127.575 18.1095 128.015 18.3177 128.456 18.587C128.897 18.8564 129.362 19.1625 129.864 19.5299C130.073 19.6646 130.256 19.8237 130.415 19.9952C130.575 20.1666 130.648 20.3747 130.648 20.6074C130.636 20.7053 130.611 20.8155 130.587 20.9257C130.562 21.0359 130.513 21.1461 130.44 21.2563L128.909 23.6807C128.811 23.8032 128.701 23.9011 128.566 23.9501C128.432 24.0113 128.322 24.0358 128.224 24.0358C128.028 24.0358 127.832 23.9868 127.648 23.8889C127.232 23.6685 126.865 23.4481 126.522 23.2522C126.191 23.0563 125.86 22.8848 125.53 22.7379C125.212 22.591 124.869 22.4808 124.526 22.4073C124.183 22.3216 123.803 22.2849 123.375 22.2849C122.261 22.2849 121.33 22.6399 120.559 23.3501C119.787 24.0603 119.273 25.0399 119.016 26.2765V40.3454C119.016 41.0923 118.624 41.4596 117.853 41.4596H114.779C114.008 41.4596 113.616 41.0801 113.616 40.3454V18.8687Z" fill="#A8AAAD"></path><path d="M134.076 11.8404C134.076 11.522 134.138 11.2526 134.272 11.0445C134.407 10.8363 134.713 10.7261 135.215 10.7261H138.411C138.778 10.7261 139.035 10.8363 139.195 11.0567C139.354 11.2771 139.44 11.5098 139.44 11.7547V27.1459L147.656 18.2564C147.815 18.0973 147.986 17.9748 148.145 17.8891C148.317 17.8034 148.513 17.7544 148.758 17.7544H153.031C153.3 17.7544 153.508 17.8156 153.643 17.9258C153.778 18.036 153.851 18.183 153.851 18.3789C153.851 18.5013 153.839 18.6115 153.802 18.7095C153.766 18.8074 153.692 18.9176 153.594 19.0401L145.207 27.7949L155.161 40.076H155.125C155.259 40.2107 155.357 40.3576 155.419 40.5291C155.48 40.6882 155.504 40.8229 155.504 40.9209C155.504 41.129 155.443 41.276 155.321 41.3494C155.198 41.4229 155.014 41.4596 154.757 41.4596H149.994C149.627 41.4596 149.284 41.2025 148.941 40.676L141.705 31.2968L139.464 33.6232V40.3454C139.464 40.4556 139.452 40.578 139.403 40.7127C139.366 40.8474 139.305 40.9699 139.219 41.0801C139.133 41.1903 139.035 41.2882 138.889 41.3617C138.742 41.4351 138.582 41.4719 138.387 41.4719H135.081C134.897 41.4719 134.738 41.4351 134.615 41.3617C134.493 41.2882 134.383 41.1903 134.297 41.0801C134.211 40.9699 134.15 40.8474 134.113 40.7372C134.076 40.6148 134.064 40.5168 134.064 40.4433V11.8404H134.076Z" fill="#A8AAAD"></path><path d="M161.443 34.7864C161.7 35.1905 162.031 35.5456 162.435 35.8517C162.826 36.1455 163.243 36.3904 163.659 36.5863C164.075 36.7823 164.479 36.9169 164.859 37.0027C165.239 37.0884 165.545 37.1373 165.765 37.1373C166.12 37.1373 166.524 37.1006 167.002 37.0271C167.479 36.9537 167.92 36.819 168.336 36.6231C168.753 36.4272 169.108 36.17 169.402 35.8394C169.696 35.5088 169.842 35.0925 169.842 34.5783C169.842 34.064 169.72 33.6722 169.5 33.3661C169.267 33.06 168.961 32.8028 168.569 32.5947C168.177 32.3865 167.724 32.2151 167.222 32.0804C166.72 31.9457 166.181 31.7988 165.63 31.6274C164.32 31.2845 163.206 30.856 162.288 30.3662C161.369 29.8764 160.61 29.3132 160.022 28.6764C159.435 28.0397 158.994 27.3418 158.725 26.5827C158.455 25.8235 158.308 24.9909 158.308 24.097C158.308 23.093 158.504 22.1747 158.908 21.3298C159.312 20.4972 159.863 19.787 160.586 19.187C161.308 18.587 162.177 18.1218 163.194 17.7912C164.21 17.4606 165.336 17.3014 166.573 17.3014C167.443 17.3014 168.226 17.3748 168.912 17.534C169.598 17.6932 170.234 17.9258 170.822 18.232C171.41 18.5381 171.961 18.9299 172.475 19.4074C172.989 19.885 173.516 20.4359 174.055 21.0727C174.238 21.2931 174.336 21.5135 174.336 21.7216C174.336 21.942 174.214 22.1624 173.957 22.3583C173.773 22.5053 173.553 22.6889 173.295 22.9216C173.038 23.142 172.793 23.3624 172.536 23.5705C172.291 23.7787 172.046 23.9623 171.826 24.1093C171.606 24.2562 171.41 24.3297 171.263 24.3297C170.993 24.3297 170.724 24.1705 170.455 23.8399C170.185 23.5215 169.904 23.2277 169.634 22.995C169.365 22.7501 169.071 22.5542 168.777 22.3951C168.483 22.2359 168.153 22.1257 167.81 22.04C167.455 21.9543 167.075 21.9175 166.671 21.9175C166.341 21.9175 165.985 21.9665 165.618 22.0645C165.251 22.1624 164.908 22.3093 164.614 22.5053C164.308 22.7012 164.051 22.9461 163.843 23.2277C163.635 23.5093 163.537 23.8277 163.537 24.1705C163.537 24.5623 163.659 24.9052 163.916 25.1868C164.173 25.4684 164.492 25.7133 164.883 25.9092C165.275 26.1174 165.704 26.2888 166.157 26.4235C166.622 26.5582 167.051 26.6806 167.443 26.7908C168.581 27.1214 169.634 27.4887 170.602 27.9173C171.557 28.3458 172.389 28.8479 173.075 29.4601C173.761 30.0601 174.299 30.7702 174.691 31.5906C175.083 32.411 175.267 33.3538 175.267 34.4558C175.267 35.6068 175.034 36.6476 174.581 37.5659C174.128 38.4842 173.491 39.2556 172.671 39.8923C171.863 40.5291 170.895 41.0188 169.781 41.3494C168.667 41.68 167.455 41.8514 166.145 41.8514C165.361 41.8514 164.565 41.7657 163.757 41.5943C162.949 41.4229 162.177 41.1658 161.431 40.8107C160.684 40.4556 159.998 40.0025 159.373 39.4515C158.749 38.9005 158.222 38.2393 157.794 37.4802C157.61 37.1741 157.512 36.8925 157.512 36.6353C157.512 36.4761 157.549 36.3292 157.635 36.219C157.72 36.0966 157.818 35.9864 157.965 35.8762L160.059 34.2722C160.243 34.162 160.414 34.1007 160.561 34.1007C160.733 34.1007 160.892 34.162 161.026 34.2722C161.161 34.3946 161.308 34.5538 161.48 34.7497" fill="#A8AAAD"></path></svg>